Coordinates
version=1
nRows=21
nColumns=22
inDegrees=yes

Units are S.I. units (second, meters, Newtons, ...)
If the header above contains a line with 'inDegrees', this indicates whether rotational values are in degrees (yes) or radians (no).

endheader
time	pelvis_tilt	pelvis_list	pelvis_rotation	pelvis_tx	pelvis_ty	pelvis_tz	hip_flexion_r	hip_adduction_r	hip_rotation_r	knee_angle_r	ankle_angle_r	subtalar_angle_r	hip_flexion_l	hip_adduction_l	hip_rotation_l	knee_angle_l	ankle_angle_l	subtalar_angle_l	lumbar_extension	lumbar_bending	lumbar_rotation
      2.44000000	     -5.76363727	     -6.11421578	     -8.31920046	     -0.47099831	      0.96063055	      0.15181038	     15.48275735	     14.62744196	    -12.10545014	    -21.95797732	     10.19576494	     -4.95751942	     19.24824510	    -12.78623106	      9.12491596	    -50.80316122	     11.42796491	     -2.47980286	     -0.63837100	      7.67386279	     -9.66948448
      2.45000000	     -5.95552117	     -6.06191180	     -9.30094144	     -0.46467548	      0.96064170	      0.15601028	     14.75330921	     15.02886235	    -11.17905282	    -21.41228853	     10.35313364	     -4.95548113	     19.94631689	    -12.76562467	      9.57680131	    -49.58502591	     11.87851347	     -2.71647007	     -0.49596108	      7.66644649	     -9.31860139
      2.46000000	     -6.10238262	     -5.97047842	    -10.29771779	     -0.45837494	      0.96066874	      0.16015095	     13.97454349	     15.36260329	    -10.20050248	    -20.87758074	     10.51365540	     -4.94909835	     20.55883558	    -12.65297775	     10.09769446	    -48.30249049	     12.24513012	     -2.94511774	     -0.40139747	      7.62506113	     -8.96110135
      2.47000000	     -6.20852726	     -5.84975032	    -11.28035005	     -0.45209352	      0.96068948	      0.16420159	     13.16342248	     15.62573523	     -9.22593602	    -20.36480780	     10.69159709	     -4.93542644	     21.10735975	    -12.44906928	     10.72577980	    -46.97903687	     12.55264274	     -3.13962455	     -0.34734872	      7.55635041	     -8.62986738
      2.48000000	     -6.38833366	     -5.73322819	    -12.26117227	     -0.44589713	      0.96053694	      0.16821482	     12.44096559	     15.88375933	     -8.25001191	    -19.87076510	     10.86000611	     -4.94188068	     21.74939983	    -12.23037517	     11.44640058	    -45.67611106	     12.79811680	     -3.16851157	     -0.21471491	      7.51900672	     -8.30288679
      2.49000000	     -6.52819371	     -5.59402999	    -13.23252298	     -0.43969505	      0.96038228	      0.17217841	     11.68606426	     16.08583520	     -7.26173020	    -19.39852594	     11.03566424	     -4.95021321	     22.33028037	    -11.94729653	     12.24158830	    -44.35327635	     12.98348112	     -3.13067418	     -0.11921650	      7.45699096	     -7.98202519
      2.50000000	     -6.65736202	     -5.44492377	    -14.18743536	     -0.43350815	      0.96018448	      0.17608136	     10.93221628	     16.24827141	     -6.27745089	    -18.94758955	     11.21189356	     -4.96232798	     22.89352934	    -11.62508903	     13.10526197	    -43.02668846	     13.10092222	     -3.03159924	     -0.03220830	      7.39321075	     -7.68271883
      2.51000000	     -6.77247983	     -5.28773712	    -15.12743525	     -0.42732035	      0.95995135	      0.17993640	     10.17843803	     16.37386620	     -5.29466732	    -18.52300893	     11.38943217	     -4.97767853	     23.43243498	    -11.27626460	     14.00602304	    -41.69460934	     13.14910682	     -2.87993062	      0.04357646	      7.32730237	     -7.39810936
      2.52000000	     -6.87795533	     -5.12430558	    -16.05320982	     -0.42113041	      0.95967274	      0.18377145	      9.43240383	     16.46675949	     -4.31909867	    -18.12870596	     11.56668125	     -4.99460914	     23.95436272	    -10.91620552	     14.91721771	    -40.36018037	     13.11264025	     -2.69583697	      0.11485112	      7.25675916	     -7.12920062
      2.53000000	     -6.97408283	     -4.95443175	    -16.96478125	     -0.41493854	      0.95935075	      0.18758521	      8.69857017	     16.52771790	     -3.35325242	    -17.76680139	     11.74778542	     -5.01029509	     24.45875333	    -10.55086669	     15.81440545	    -39.01955276	     12.98340348	     -2.49699598	      0.18116026	      7.18345929	     -6.87470211
      2.54000000	     -7.06029288	     -4.77974561	    -17.86461580	     -0.40873710	      0.95898336	      0.19138901	      7.97942880	     16.55860598	     -2.40047540	    -17.44181001	     11.93555421	     -5.02163586	     24.94618452	    -10.19063353	     16.66833223	    -37.67297092	     12.75101500	     -2.29628534	      0.24268925	      7.10683752	     -6.63567531
      2.55000000	     -7.14066433	     -4.60185798	    -18.74816311	     -0.40252350	      0.95856282	      0.19517913	      7.28325235	     16.56278501	     -1.46702436	    -17.15737764	     12.13250926	     -5.02708795	     25.42468973	     -9.84274644	     17.45716909	    -36.31966375	     12.40175442	     -2.10677555	      0.30273434	      7.03125464	     -6.41725160
      2.56000000	     -7.21579437	     -4.42151243	    -19.62056942	     -0.39630830	      0.95808601	      0.19897629	      6.61380409	     16.54564030	     -0.54703425	    -16.91859805	     12.33755653	     -5.02567303	     25.89719706	     -9.51171494	     18.16332633	    -34.96485550	     11.92074599	     -1.93427609	      0.36022534	      6.95543524	     -6.21049958
      2.57000000	     -7.28422624	     -4.24502337	    -20.47537875	     -0.39007293	      0.95755337	      0.20278864	      5.96739694	     16.51288464	      0.34971777	    -16.72494577	     12.55982130	     -5.01482500	     26.36360196	     -9.20854476	     18.76251363	    -33.60911691	     11.31072992	     -1.78049569	      0.41279898	      6.88202988	     -6.02627851
      2.58000000	     -7.35489906	     -4.07208834	    -21.31412047	     -0.38383080	      0.95695269	      0.20660355	      5.36284010	     16.46916971	      1.21433870	    -16.59219552	     12.78022958	     -4.99704740	     26.83891490	     -8.93118241	     19.25090263	    -32.26129536	     10.56598725	     -1.64598441	      0.46662718	      6.81826446	     -5.86398551
      2.59000000	     -7.41817902	     -3.91022720	    -22.13268438	     -0.37756326	      0.95629939	      0.21042813	      4.77839273	     16.41969883	      2.05068654	    -16.50655831	     13.01781263	     -4.96714170	     27.30748626	     -8.68284405	     19.62182985	    -30.91858460	      9.72100635	     -1.52403504	      0.50878817	      6.76585026	     -5.71819349
      2.60000000	     -7.47203385	     -3.76180443	    -22.93101312	     -0.37125224	      0.95560188	      0.21427334	      4.20390363	     16.36698683	      2.85286993	    -16.45799284	     13.27105261	     -4.91889821	     27.76218446	     -8.46190958	     19.87434286	    -29.58102396	      8.80981824	     -1.41067261	      0.53705621	      6.72506665	     -5.58408056
      2.61000000	     -7.52230927	     -3.62479173	    -23.70710303	     -0.36490139	      0.95485832	      0.21812898	      3.65093501	     16.31196099	      3.61654111	    -16.45349743	     13.51638940	     -4.86099214	     28.20283330	     -8.26183698	     20.02802879	    -28.24237479	      7.88684048	     -1.29208631	      0.55646453	      6.69622630	     -5.47505570
      2.62000000	     -7.56509124	     -3.49866053	    -24.46251311	     -0.35848561	      0.95408118	      0.22200000	      3.10132348	     16.25224187	      4.34501392	    -16.47105198	     13.75963121	     -4.79494660	     28.61652874	     -8.07771488	     20.09137974	    -26.89797244	      7.01411852	     -1.15751489	      0.56439795	      6.67753510	     -5.37792966
      2.63000000	     -7.59606554	     -3.38266604	    -25.20530258	     -0.35200099	      0.95328073	      0.22589506	      2.54512163	     16.18483626	      5.04614361	    -16.50435155	     14.00028649	     -4.71723190	     28.98671872	     -7.90630732	     20.08084790	    -25.53790276	      6.25999847	     -0.99479676	      0.55599835	      6.66523295	     -5.27977609
      2.64000000	     -7.61972191	     -3.27365469	    -25.93503027	     -0.34544095	      0.95245913	      0.22980846	      1.98396083	     16.10691526	      5.72041149	    -16.54463819	     14.23026477	     -4.63064440	     29.31046893	     -7.74333488	     20.01787737	    -24.15644456	      5.67746016	     -0.78851659	      0.53757113	      6.65948201	     -5.18034767
